# xmcd CD database file
#
# Track frame offsets:
#	150
#	23682
#	41688
#	59057
#	80591
#	100750
#	119700
#	137463
#	153429
#	172961
#
# Disc length: 2537 seconds
#
# Revision: 12
# Processed by: cddbd v1.5.2PL0 Copyright (c) Steve Scherf et al.
# Submitted via: CDex 1.50Beta7
#
DISCID=8009e70a
DTITLE=Juliane Werding - Tarot
DYEAR=1988
DGENRE=Schlager
TTITLE0=Starke Gefühle
TTITLE1=Zeit ist ein eisernes Tor
TTITLE2=Nie mehr
TTITLE3=Es wird Zeit
TTITLE4=Tarot
TTITLE5=Ihr seid nicht allein
TTITLE6=Nebelmond
TTITLE7=Heute nicht
TTITLE8=Halt mich fest, Liebster
TTITLE9=Träume bleiben jung
EXTD=YEAR - 1988 YEAR: 1988
EXTT0=
EXTT1=
EXTT2=
EXTT3=
EXTT4=
EXTT5=
EXTT6=
EXTT7=
EXTT8=
EXTT9=
PLAYORDER=
